<svg width="100" height="78" viewBox="0 0 100 78" fill="none" xmlns="http://www.w3.org/2000/svg">
<g clip-path="url(#clip0_160_564)">
<mask id="mask0_160_564" style="mask-type:luminance" maskUnits="userSpaceOnUse" x="0" y="0" width="100" height="78">
<path d="M100 0H0V78H100V0Z" fill="white"/>
</mask>
<g mask="url(#mask0_160_564)">
<mask id="mask1_160_564" style="mask-type:luminance" maskUnits="userSpaceOnUse" x="1" y="3" width="98" height="72">
<path d="M98.0989 3H1.8999V74.557H98.0989V3Z" fill="white"/>
</mask>
<g mask="url(#mask1_160_564)">
<mask id="mask2_160_564" style="mask-type:luminance" maskUnits="userSpaceOnUse" x="1" y="3" width="98" height="72">
<path d="M98.0989 3H1.8999V74.557H49.9994H98.0989V3Z" fill="white"/>
</mask>
<g mask="url(#mask2_160_564)">
<path d="M69.1226 19.989C69.6889 18.7689 70.0258 17.455 70.1166 16.113C70.1565 15.4456 70.013 14.78 69.7017 14.1883C69.3904 13.5965 68.9232 13.1012 68.3506 12.756C67.2616 12.226 65.9506 12.53 64.8026 12.156C64.1128 11.846 63.4913 11.4023 62.974 10.8506C62.4567 10.299 62.0538 9.65027 61.7886 8.942C61.2549 7.51526 60.4766 6.19247 59.4886 5.033C58.7607 4.35913 57.8424 3.92635 56.8593 3.79373C55.8762 3.66111 54.8762 3.83512 53.9956 4.292C52.7256 3.47853 51.2556 3.03145 49.7476 3C47.8556 3 45.7076 3.217 44.4296 4.613C43.4376 5.696 42.8296 7.053 41.5956 7.849C39.8956 8.944 37.6676 8.126 35.6526 8.262C35.2416 8.29 34.7656 8.409 34.6076 8.79C34.5671 8.96276 34.5637 9.14218 34.5979 9.31632C34.632 9.49047 34.7028 9.65535 34.8056 9.8L36.4646 13.006C36.0451 13.2124 35.5843 13.3213 35.1167 13.3244C34.6491 13.3275 34.1869 13.2248 33.7646 13.024C33.9284 15.1669 34.8394 17.1842 36.3386 18.724C36.2406 18.6783 36.134 18.6535 36.0258 18.6512C35.9176 18.649 35.8101 18.6693 35.7102 18.7109C35.6103 18.7524 35.5201 18.8144 35.4455 18.8928C35.3708 18.9711 35.3133 19.0642 35.2766 19.166C35.1492 19.5898 35.1697 20.0443 35.3346 20.455C35.7274 21.748 36.3931 22.9417 37.2867 23.9553C38.1803 24.969 39.2811 25.7791 40.5147 26.3309C41.7482 26.8827 43.0858 27.1633 44.4371 27.1539C45.7884 27.1444 47.122 26.845 48.3476 26.276L59.4926 26.771C59.6591 27.1952 59.9252 27.5731 60.2684 27.8728C60.6116 28.1725 61.0219 28.3852 61.4646 28.493C62.6816 27.533 62.8646 27.009 62.8646 27.009C63.6486 27.556 63.0376 27.287 63.6486 27.556C64.0047 27.7038 64.3879 27.7747 64.7733 27.764C65.1586 27.7532 65.5373 27.6611 65.8846 27.4937C66.2318 27.3263 66.5397 27.0873 66.788 26.7925C67.0364 26.4976 67.2196 26.1536 67.3256 25.783C67.3813 25.1563 67.6175 24.5592 68.0056 24.064C68.4837 23.6626 69.0242 23.3421 69.6056 23.115C70.4798 22.6334 71.1723 21.879 71.5777 20.967C71.1236 20.9815 70.6715 20.9022 70.2496 20.7339C69.8277 20.5656 69.445 20.312 69.1256 19.989" fill="#263238"/>
<path d="M41.638 15.764C41.6581 13.0732 42.6906 10.4887 44.5298 8.52454C46.3691 6.5604 48.8803 5.36066 51.564 5.16399L52.117 5.12299C58.106 5.03399 61.5269 10.071 61.4499 16.06L62.3399 43.641L48.668 44.615L48.151 35.654C48.151 35.654 42.351 35.183 41.862 29.454C41.625 26.688 41.6 20.954 41.638 15.762" fill="#FFBE9D"/>
<path d="M44.5089 20.0979C44.5223 20.3115 44.6187 20.5114 44.7776 20.6549C44.9364 20.7984 45.145 20.8742 45.3589 20.8659C45.4637 20.8666 45.5676 20.8463 45.6644 20.8062C45.7612 20.7661 45.849 20.7071 45.9226 20.6325C45.9962 20.5579 46.0542 20.4694 46.0931 20.3721C46.1319 20.2748 46.1509 20.1707 46.1489 20.0659C46.1353 19.8525 46.0389 19.6529 45.8804 19.5095C45.7218 19.3661 45.5136 19.2902 45.2999 19.2979C45.1951 19.2972 45.0912 19.3175 44.9943 19.3576C44.8974 19.3977 44.8096 19.4567 44.7359 19.5313C44.6622 19.6058 44.6041 19.6943 44.5651 19.7916C44.5262 19.889 44.507 19.9931 44.5089 20.0979Z" fill="#263238"/>
<path d="M43.3679 17.9581C43.4769 18.0581 44.0679 17.5531 44.9449 17.4911C45.8219 17.4291 46.5039 17.8221 46.5909 17.7071C46.6349 17.6561 46.5169 17.4711 46.2209 17.2861C45.8203 17.0498 45.3564 16.9433 44.8929 16.9811C44.4346 17.0131 43.9985 17.1903 43.6479 17.4871C43.3919 17.7141 43.3149 17.9141 43.3679 17.9581Z" fill="#263238"/>
<path d="M49.206 25.1139C48.7313 25.0025 48.2445 24.9511 47.757 24.9609C47.53 24.9539 47.314 24.9249 47.265 24.7739C47.2285 24.543 47.2634 24.3065 47.365 24.0959L47.905 22.3349C48.416 20.8376 48.806 19.3017 49.071 17.7419C48.441 19.1935 47.9287 20.6933 47.539 22.2269C47.361 22.8443 47.1906 23.4343 47.028 23.9969C46.906 24.2785 46.8876 24.5941 46.976 24.8879C47.0146 24.9645 47.0702 25.0313 47.1384 25.0833C47.2067 25.1353 47.2858 25.1711 47.37 25.1879C47.4971 25.2125 47.6268 25.2209 47.756 25.2129C48.2416 25.241 48.7288 25.2074 49.206 25.1129" fill="#263238"/>
<path d="M43.1007 15.838C43.3007 16.026 44.0337 15.772 44.9267 15.706C45.8177 15.615 46.5857 15.737 46.7467 15.516C46.8167 15.41 46.6857 15.216 46.3467 15.048C45.8738 14.8398 45.3546 14.7588 44.8407 14.813C44.3281 14.8484 43.8341 15.0188 43.4087 15.307C43.1087 15.533 43.0147 15.745 43.1087 15.838" fill="#263238"/>
<path d="M60.896 20.3661C60.991 20.3171 64.749 18.9121 64.911 22.8401C65.073 26.7681 61.097 26.1211 61.085 26.0081C61.073 25.8951 60.896 20.3661 60.896 20.3661Z" fill="#FFBE9D"/>
<path d="M61.8777 24.495C61.8947 24.482 61.9487 24.54 62.0667 24.588C62.2324 24.6509 62.4159 24.647 62.5787 24.577C62.8252 24.4053 63.0218 24.1713 63.1485 23.8988C63.2751 23.6264 63.3273 23.3252 63.2997 23.026C63.2956 22.6888 63.2163 22.3568 63.0677 22.054C63.0253 21.9337 62.9544 21.8254 62.861 21.7383C62.7677 21.6512 62.6547 21.588 62.5317 21.554C62.4522 21.5351 62.3685 21.5447 62.2953 21.5813C62.2222 21.6178 62.1643 21.679 62.1317 21.754C62.0837 21.866 62.1117 21.943 62.0907 21.954C62.0697 21.965 62.0037 21.892 62.0287 21.728C62.047 21.63 62.0982 21.5411 62.1737 21.476C62.2784 21.39 62.4128 21.3487 62.5477 21.361C62.7103 21.3862 62.8637 21.4527 62.9932 21.554C63.1228 21.6554 63.2242 21.7883 63.2877 21.94C63.4687 22.2733 63.5655 22.6458 63.5697 23.025C63.6035 23.3738 63.5335 23.7248 63.3684 24.0338C63.2032 24.3429 62.9504 24.5963 62.6417 24.762C62.5376 24.797 62.4269 24.8082 62.3179 24.7947C62.2088 24.7812 62.1042 24.7434 62.0117 24.684C61.8857 24.592 61.8617 24.505 61.8747 24.497" fill="#EB996E"/>
<path d="M62.2267 11.3969C61.9261 10.2521 61.408 9.1759 60.7007 8.22693C58.6447 5.37193 53.9547 4.03993 51.2927 4.27593C48.6307 4.51193 45.8657 6.48693 43.3837 7.47593C41.7587 8.12493 40.5257 9.61693 41.1457 10.7759C40.1847 11.1584 39.1676 11.3813 38.1347 11.4359C38.1347 11.4359 38.0347 12.9029 38.8547 13.2909L41.4157 14.9689C44.8317 15.4199 50.8277 12.0579 51.9847 10.9999C53.0561 10.0166 54.2419 9.16576 55.5167 8.46593C54.4297 11.3189 57.9727 10.6879 57.8777 11.7949C57.5148 12.8204 57.5366 13.9429 57.9393 14.9535C58.3419 15.9641 59.098 16.794 60.0667 17.2889L60.1467 20.7939C60.0737 21.6939 60.4587 22.3869 61.3597 22.3259C61.8912 21.5956 62.2785 20.7705 62.5007 19.8949C62.7697 17.0614 62.6776 14.2052 62.2267 11.3949" fill="#263238"/>
<path d="M48.104 35.6489C50.7667 35.4552 53.3178 34.5011 55.454 32.8999C55.454 32.8999 53.99 37.1549 48.233 37.0579L48.104 35.6489Z" fill="#EB996E"/>
<path d="M52.7657 19.572C52.7794 19.7856 52.8759 19.9853 53.0347 20.1288C53.1934 20.2722 53.4019 20.348 53.6158 20.34C53.7205 20.3407 53.8244 20.3204 53.9212 20.2803C54.018 20.2402 54.1058 20.1812 54.1795 20.1066C54.2531 20.0321 54.311 19.9435 54.3499 19.8462C54.3888 19.7489 54.4078 19.6448 54.4057 19.54C54.3921 19.3267 54.2957 19.1271 54.1372 18.9836C53.9786 18.8402 53.7704 18.7643 53.5568 18.772C53.4519 18.7713 53.348 18.7916 53.2512 18.8317C53.1543 18.8718 53.0664 18.9308 52.9927 19.0054C52.919 19.0799 52.861 19.1685 52.822 19.2658C52.783 19.3631 52.7639 19.4672 52.7657 19.572Z" fill="#263238"/>
<path d="M51.822 17.515C51.93 17.626 52.622 17.191 53.587 17.229C54.552 17.267 55.245 17.729 55.353 17.629C55.406 17.583 55.299 17.386 54.996 17.169C54.579 16.8863 54.0897 16.7291 53.586 16.716C53.0911 16.6942 52.601 16.8202 52.178 17.078C51.878 17.278 51.77 17.466 51.823 17.515" fill="#263238"/>
<path d="M51.7341 14.752C51.8191 14.993 52.7021 14.886 53.7341 15.018C54.7721 15.13 55.6051 15.44 55.7441 15.225C55.8061 15.125 55.6621 14.895 55.3261 14.66C54.8772 14.3717 54.3685 14.1893 53.8387 14.1268C53.3089 14.0642 52.7718 14.1231 52.2681 14.299C51.8861 14.449 51.6931 14.637 51.7301 14.751" fill="#263238"/>
<path d="M49.126 26.8089C49.8663 26.5619 50.6236 26.3694 51.392 26.2329L51.948 26.0559C52.0894 26.3062 52.1741 26.5846 52.196 26.8713C52.218 27.158 52.1767 27.446 52.075 27.7149C51.9576 27.9092 51.8001 28.0761 51.6129 28.2046C51.4258 28.3331 51.2134 28.4201 50.99 28.4599C50.8336 28.5011 50.6702 28.509 50.5106 28.4832C50.3509 28.4573 50.1984 28.3983 50.063 28.3099C49.795 28.1568 49.5691 27.9397 49.4056 27.6779C49.2421 27.4161 49.146 27.1169 49.126 26.8089Z" fill="#EB996E"/>
<path d="M50.6579 28.4629C50.958 28.4213 51.2436 28.3074 51.4899 28.1309C51.7441 27.9301 51.9299 27.6556 52.0219 27.3449C52.1374 26.9652 52.1353 26.5594 52.0159 26.1809L51.9949 26.1189L52.1009 26.1769C51.2579 26.3639 50.5009 26.5239 49.9449 26.6309C49.6502 26.7062 49.3487 26.7517 49.0449 26.7669C49.3264 26.651 49.6189 26.5639 49.9179 26.5069C50.4629 26.3679 51.2179 26.1879 52.0629 25.9999L52.1439 25.9819L52.1689 26.0579L52.1909 26.1259C52.3224 26.5405 52.3196 26.986 52.1829 27.3989C52.0737 27.7376 51.8575 28.0316 51.5669 28.2369C51.3739 28.3744 51.1486 28.4595 50.9129 28.4839C50.8278 28.5011 50.7396 28.4945 50.6579 28.4649" fill="#263238"/>
<path d="M68.514 23.3861C68.4322 23.3786 68.3522 23.358 68.277 23.3251C68.0601 23.2289 67.8717 23.0784 67.73 22.8881C67.5061 22.5864 67.3679 22.2298 67.33 21.8561C67.293 21.3681 67.3134 20.8774 67.391 20.3941C67.4917 19.8241 67.4657 19.2389 67.315 18.6801C67.2159 18.3809 67.033 18.1164 66.788 17.9181C66.5182 17.7106 66.2232 17.5382 65.91 17.4051C65.5693 17.2598 65.2426 17.0838 64.934 16.8791C64.6074 16.6494 64.3537 16.3308 64.203 15.9611C63.9763 15.1889 63.8207 14.3976 63.738 13.5971C63.6625 13.21 63.5046 12.8437 63.275 12.5231C63.0432 12.2246 62.7103 12.0212 62.339 11.9511C61.972 11.8661 61.589 11.8511 61.214 11.7791C60.8295 11.7223 60.4764 11.5348 60.214 11.2481C59.9924 10.9627 59.8394 10.6301 59.767 10.2761C59.684 9.94309 59.636 9.61809 59.567 9.31209C59.5045 9.01899 59.4057 8.73481 59.273 8.46609C59.1438 8.22139 58.9856 7.99309 58.802 7.78609C58.2376 7.15519 57.473 6.73811 56.637 6.60509C56.3288 6.57147 56.0183 6.56444 55.709 6.58409C56.0155 6.50931 56.3333 6.49269 56.646 6.53509C57.511 6.6444 58.309 7.05725 58.898 7.70009C59.0923 7.91243 59.2601 8.14747 59.398 8.40009C59.54 8.67834 59.6465 8.97331 59.715 9.27809C59.788 9.58909 59.84 9.91409 59.923 10.2361C59.9923 10.5639 60.1352 10.8717 60.341 11.1361C60.5784 11.3911 60.8961 11.557 61.241 11.6061C61.598 11.6771 61.982 11.6871 62.372 11.7751C62.7839 11.8537 63.1532 12.0794 63.411 12.4101C63.6581 12.751 63.8286 13.1412 63.911 13.5541C63.9929 14.3441 64.1438 15.1254 64.362 15.8891C64.499 16.2296 64.7313 16.5233 65.031 16.7351C65.3303 16.9346 65.6469 17.107 65.977 17.2501C66.3023 17.391 66.6081 17.5732 66.887 17.7921C67.1524 18.0111 67.3496 18.3015 67.455 18.6291C67.6072 19.2099 67.6277 19.8174 67.515 20.4071C67.4305 20.8811 67.4003 21.3632 67.425 21.8441C67.4552 22.2032 67.5794 22.5481 67.785 22.8441C67.9627 23.0976 68.2172 23.2873 68.511 23.3851" fill="#455A64"/>
<path d="M36.9239 9.41189C36.9866 9.44281 37.0457 9.48072 37.0999 9.52489L37.5909 9.86289C38.191 10.2761 38.8408 10.6121 39.5249 10.8629C40.5344 11.2431 41.6439 11.2654 42.6679 10.9259C43.2612 10.718 43.782 10.3433 44.1679 9.84689C44.5632 9.28927 44.9076 8.69721 45.1969 8.07789C45.5013 7.44514 45.9258 6.87761 46.4469 6.40689C46.9447 5.98271 47.5167 5.6542 48.1339 5.43789C49.1789 5.07806 50.2995 4.99571 51.3859 5.19889C52.1122 5.32742 52.8194 5.54681 53.4909 5.85189C53.7279 5.95889 53.9079 6.05189 54.0279 6.11689C54.0915 6.14624 54.1516 6.18281 54.2069 6.22589C54.1391 6.2083 54.0737 6.18279 54.0119 6.14989C53.8869 6.09489 53.7029 6.01389 53.4629 5.91789C52.7877 5.64153 52.0831 5.44324 51.3629 5.32689C50.2991 5.14619 49.2068 5.2391 48.1889 5.59689C47.5939 5.81158 47.0432 6.1332 46.5639 6.54589C46.0613 7.00359 45.6518 7.55399 45.3579 8.16689C45.0637 8.79588 44.7123 9.39642 44.3079 9.96089C43.8995 10.4822 43.3485 10.8737 42.7219 11.0879C41.6621 11.4326 40.5154 11.3972 39.4789 10.9879C38.7895 10.7238 38.1397 10.3661 37.5479 9.92489C37.3369 9.77189 37.1799 9.64489 37.0749 9.55789C37.0185 9.51634 36.9671 9.46835 36.9219 9.41489" fill="#455A64"/>
<path d="M35.4421 14.6269C35.4631 14.6029 35.7341 14.8379 36.2211 15.1379C37.499 15.9218 39.0002 16.2614 40.4911 16.1039C41.0601 16.0439 41.4051 15.9469 41.4141 15.9779C41.4141 15.9899 41.3351 16.0239 41.1801 16.0779C40.9608 16.1485 40.736 16.201 40.5081 16.2349C38.9834 16.469 37.4265 16.1167 36.1511 15.2489C35.9599 15.1207 35.7797 14.9768 35.6121 14.8189C35.4941 14.7059 35.4341 14.6399 35.4421 14.6299" fill="#455A64"/>
<path d="M38.7407 17.908C38.7627 17.859 39.3607 18.103 40.1407 18.23C40.9207 18.357 41.5607 18.33 41.5657 18.383C40.5991 18.5845 39.5921 18.4149 38.7447 17.908" fill="#455A64"/>
<path d="M48.344 38.994L37.073 42.094L24.915 50.879L28.157 56.426L85.488 56.526C85.488 56.526 83.398 48.864 82.711 46.512C82.1214 44.217 80.8177 42.1688 78.988 40.663C78.3916 40.1319 77.6959 39.7241 76.941 39.463C74.676 38.969 64.181 36.611 62.141 36.669C62.141 36.669 59.786 41.538 54.851 41.49C49.916 41.442 48.346 38.995 48.346 38.995" fill="#455A64"/>
<path d="M71.5787 47.9941C71.6137 48.0031 71.7196 47.5311 72.0526 46.8381C72.4989 45.9404 73.086 45.12 73.7916 44.4081C74.504 43.6978 75.2648 43.0379 76.0686 42.4331C76.4128 42.1914 76.7381 41.924 77.0416 41.6331C76.6681 41.8264 76.313 42.0533 75.9806 42.3111C75.1425 42.8868 74.3595 43.5389 73.6417 44.2591C72.9189 44.9847 72.335 45.8364 71.9186 46.7721C71.7963 47.0561 71.6986 47.3502 71.6267 47.6511C71.5912 47.7597 71.5749 47.8738 71.5787 47.9881" fill="#263238"/>
<path d="M37.3431 54.0821C37.3934 53.6869 37.4061 53.2877 37.3811 52.8901C37.3731 52.1541 37.3341 51.1381 37.2491 50.0181C37.1641 48.8981 37.0491 47.8871 36.9441 47.1581C36.9086 46.7614 36.8356 46.369 36.7261 45.9861C36.7181 46.3837 36.7425 46.7814 36.7991 47.1751C36.8671 47.9751 36.9511 48.9511 37.0431 50.0341C37.1161 51.1181 37.1821 52.0981 37.2351 52.8961C37.2389 53.294 37.2751 53.69 37.3431 54.0821Z" fill="#263238"/>
<g opacity="0.3">
<mask id="mask3_160_564" style="mask-type:luminance" maskUnits="userSpaceOnUse" x="31" y="51" width="14" height="6">
<path d="M44.8407 51.5879H31.2407V56.5329H44.8407V51.5879Z" fill="white"/>
</mask>
<g mask="url(#mask3_160_564)">
<path d="M33.9588 55.5399C34.9058 55.3204 35.7844 54.872 36.5178 54.2339C36.8777 53.9082 37.1317 53.482 37.2467 53.0105C37.3617 52.5389 37.3324 52.0436 37.1628 51.5889C37.846 53.0399 38.934 54.2626 40.2958 55.1099C41.6576 55.9572 43.2352 56.393 44.8388 56.3649L31.2388 56.5349C32.101 56.0929 33.0146 55.7593 33.9588 55.5419" fill="black"/>
</g>
</g>
<path d="M98.099 56.5041C97.5142 55.674 96.8226 54.9245 96.042 54.2751C95.733 54.0987 95.3825 54.0079 95.0268 54.0121C94.671 54.0163 94.3227 54.1154 94.018 54.2991L93.607 54.6671C93.607 54.6671 91.467 53.7061 90.438 54.4451C90.438 54.4451 88.402 53.4831 87.429 54.5841C87.429 54.5841 85.86 53.5641 85.196 54.4551C84.9139 54.9284 84.7426 55.4596 84.6952 56.0086C84.6477 56.5577 84.7253 57.1103 84.922 57.6251C85.243 58.4001 85.845 61.0401 86.313 61.0861C86.313 61.0861 87.564 61.2191 87.731 60.5431C87.898 59.8671 87.969 59.5431 87.969 59.5431C87.969 59.5431 88.447 61.9361 89.023 62.0541C89.599 62.1721 90.697 62.1091 90.735 61.0591C90.735 61.0591 91.269 61.8521 91.791 61.6211C92.313 61.3901 92.958 61.0081 92.9 60.3591C92.842 59.7101 92.835 59.0591 92.835 59.0591C92.835 59.0591 93.121 60.0051 93.593 59.7991C94.065 59.5931 94.54 59.6381 94.806 58.8351C95.072 58.0321 95.729 56.5031 95.729 56.5031L98.099 56.5041Z" fill="#FFBE9D"/>
<path d="M92.8717 59.007C92.9017 58.992 92.7778 58.748 92.6718 58.331C92.5244 57.7908 92.5008 57.2243 92.6028 56.6737C92.7048 56.1231 92.9297 55.6026 93.2608 55.151C93.5128 54.801 93.7157 54.618 93.6937 54.592C93.4751 54.7007 93.2866 54.8614 93.1448 55.06C92.7632 55.5114 92.5059 56.0545 92.3982 56.6356C92.2905 57.2168 92.3362 57.8159 92.5307 58.374C92.5919 58.6105 92.7104 58.8283 92.8757 59.008" fill="#EB996E"/>
<path d="M90.3051 54.459C90.1672 54.7575 90.0749 55.0751 90.0311 55.401C89.7343 56.966 89.8431 58.5809 90.3471 60.092C90.4344 60.4104 90.5693 60.7138 90.7471 60.992C90.0311 58.8914 89.8797 56.6395 90.3081 54.462" fill="#EB996E"/>
<path d="M87.3798 54.616C87.1451 56.3006 87.3419 58.0172 87.9518 59.605C88.0118 59.587 87.7098 58.5 87.5518 57.123C87.3938 55.746 87.4378 54.623 87.3758 54.616" fill="#EB996E"/>
<path d="M78.96 55.1541C79.0114 55.0457 79.0866 54.9502 79.1799 54.8747C79.2732 54.7992 79.3822 54.7457 79.499 54.7181C79.7721 54.6577 80.0557 54.664 80.3259 54.7364C80.5961 54.8088 80.8448 54.9452 81.051 55.1341C81.4973 55.5411 81.8796 56.0131 82.185 56.5341L79.152 56.5151C79.181 56.0511 78.791 55.5901 78.961 55.1581" fill="#FFBE9D"/>
<path d="M2.09488 57.321C2.18712 56.3934 2.49117 55.4994 2.98357 54.7079C3.47596 53.9165 4.14356 53.2487 4.93488 52.756C5.56516 52.3845 6.26877 52.1547 6.99682 52.0825C7.72488 52.0103 8.45992 52.0975 9.15088 52.338L15.0049 54.376C15.3199 54.713 24.9779 50.99 24.9779 50.99L28.2199 56.529L9.76388 56.504C10.7798 57.6596 11.8556 58.7611 12.9869 59.804L14.2409 63.966L14.1159 67.734C13.4539 68.039 12.4629 66.876 12.4629 66.876L11.8839 67.938L12.0769 68.962C12.0769 68.962 13.7829 73.104 13.7239 74.026C13.724 74.096 13.7102 74.1652 13.6831 74.2297C13.656 74.2942 13.6162 74.3526 13.5661 74.4015C13.5161 74.4504 13.4567 74.4887 13.3916 74.5142C13.3264 74.5397 13.2568 74.5519 13.1869 74.55C12.9432 74.5651 12.7006 74.5077 12.4895 74.3851C12.2785 74.2625 12.1084 74.0801 12.0009 73.861L9.57388 69.148C8.6716 68.9439 7.81331 68.5795 7.03988 68.072C6.35188 67.423 5.37588 66.253 5.37588 66.253L4.18488 66.083C4.04225 66.1022 3.89729 66.0733 3.77288 66.001C3.45889 65.8456 3.18596 65.6185 2.97624 65.3378C2.76653 65.0572 2.62593 64.7311 2.56588 64.386L1.95788 61.214C1.87147 59.9154 1.91737 58.6103 2.09488 57.321Z" fill="#FFBE9D"/>
<path d="M7.59375 65.525C7.7341 66.2141 7.99257 66.8739 8.35775 67.475C8.66706 68.1066 9.08318 68.68 9.58775 69.17C9.63375 69.134 9.07475 68.387 8.52875 67.381C7.98275 66.375 7.64875 65.506 7.59375 65.525Z" fill="#EB996E"/>
<path d="M4.77404 65.179C4.86248 65.5607 5.04698 65.9135 5.31004 66.2039C5.51157 66.5355 5.77142 66.8279 6.07704 67.067C5.92582 66.712 5.72074 66.3824 5.46904 66.09C5.26051 65.768 5.02642 65.4634 4.76904 65.179" fill="#EB996E"/>
<path d="M12.4527 69.911C12.3651 69.5211 12.2546 69.1368 12.1217 68.76C11.9087 68.054 11.6307 67.073 11.3587 65.98C11.2217 65.434 11.0997 64.911 10.9937 64.436C10.8849 64.025 10.8423 63.5993 10.8677 63.175C10.9073 62.7851 11.0626 62.4159 11.3137 62.115C11.3077 62.107 11.2027 62.165 11.0677 62.331C10.8857 62.5724 10.7695 62.8571 10.7307 63.157C10.6831 63.597 10.7122 64.0419 10.8167 64.472C10.9167 64.953 11.0307 65.478 11.1687 66.027C11.4417 67.127 11.7417 68.104 11.9897 68.802C12.104 69.1867 12.2588 69.5581 12.4517 69.91" fill="#EB996E"/>
<path d="M11.1841 62.9131C11.1601 62.9341 11.3601 63.1601 11.5921 63.5771C11.8937 64.1182 12.0726 64.7191 12.1161 65.3371C12.111 65.6891 12.1401 66.0407 12.2031 66.3871C12.2734 66.6794 12.4274 66.9448 12.6461 67.1511C12.8262 67.3501 13.0505 67.5039 13.3011 67.6001C13.3221 67.5721 13.0641 67.4071 12.7461 67.0571C12.5619 66.8589 12.4348 66.6146 12.3781 66.3501C12.3276 66.0112 12.3049 65.6687 12.3101 65.3261C12.2678 64.6789 12.0613 64.0533 11.7101 63.5081C11.5814 63.2735 11.4016 63.0709 11.1841 62.9151" fill="#EB996E"/>
<path d="M9.80904 56.555C9.84504 56.51 9.15904 55.9409 8.46904 55.0949C7.77904 54.2489 7.33504 53.4689 7.26904 53.5199C7.32594 53.7062 7.40732 53.8841 7.51104 54.049C7.7419 54.4626 8.00966 54.8545 8.31104 55.2199C8.71299 55.7609 9.22015 56.215 9.80204 56.555" fill="#EB996E"/>
<g opacity="0.3">
<mask id="mask4_160_564" style="mask-type:luminance" maskUnits="userSpaceOnUse" x="67" y="51" width="4" height="6">
<path d="M70.7609 51.2161H67.0469V56.5041H70.7609V51.2161Z" fill="white"/>
</mask>
<g mask="url(#mask4_160_564)">
<path d="M70.5309 56.504L70.7599 51.217L67.0459 56.499L70.5309 56.504Z" fill="black"/>
</g>
</g>
<path d="M70.532 56.504C70.4983 55.4596 70.5257 54.4141 70.614 53.373C70.6414 52.3283 70.7299 51.2862 70.879 50.252C70.9123 51.2963 70.8849 52.3418 70.797 53.3829C70.7692 54.4275 70.6807 55.4696 70.532 56.504Z" fill="#263238"/>
<path d="M69.396 38.036C69.449 38.143 69.4809 38.2591 69.49 38.378C69.5177 38.7236 69.4275 39.0684 69.234 39.356C68.9375 39.8197 68.4792 40.1566 67.948 40.301C67.2539 40.4682 66.5384 40.5286 65.826 40.48C65.4184 40.4695 65.0105 40.4902 64.606 40.542C64.1727 40.5943 63.7565 40.7429 63.388 40.977C63.0045 41.2425 62.702 41.6091 62.514 42.036C62.3126 42.4942 62.162 42.973 62.065 43.464C61.95 43.969 61.848 44.495 61.687 45.022C61.5287 45.5687 61.2636 46.0785 60.907 46.522C60.5283 46.9843 60.0593 47.3646 59.5288 47.6397C58.9982 47.9148 58.4171 48.0789 57.8211 48.122C56.616 48.1796 55.4372 47.7579 54.542 46.949C54.1253 46.5669 53.7755 46.1177 53.507 45.62C53.2803 45.1516 52.9323 44.7524 52.499 44.464C52.0616 44.2368 51.5646 44.1502 51.076 44.216C50.6051 44.269 50.1377 44.3492 49.676 44.456C49.2374 44.5583 48.7901 44.6192 48.34 44.638C47.9197 44.6455 47.5015 44.5778 47.105 44.438C46.4238 44.2027 45.8146 43.796 45.336 43.257C44.9713 42.8572 44.6899 42.3888 44.508 41.879C44.4418 41.694 44.39 41.5041 44.353 41.311C44.334 41.141 44.308 40.999 44.305 40.883C44.302 40.767 44.305 40.689 44.305 40.618C44.3032 40.5879 44.3056 40.5576 44.312 40.528C44.3278 40.9808 44.4159 41.4281 44.573 41.853C44.7971 42.4254 45.1431 42.9421 45.5871 43.3671C46.0311 43.7921 46.5624 44.1152 47.144 44.314C47.5271 44.4433 47.93 44.5036 48.334 44.492C48.7753 44.4692 49.2135 44.4056 49.643 44.302C50.1107 44.1905 50.5845 44.1066 51.062 44.051C51.5839 43.9793 52.1152 44.0708 52.583 44.313C53.043 44.6137 53.4139 45.0322 53.657 45.525C53.9164 46.0064 54.2544 46.441 54.657 46.811C55.5198 47.5878 56.6545 47.9922 57.814 47.936C58.3854 47.8938 58.9422 47.736 59.4508 47.4724C59.9594 47.2087 60.4092 46.8446 60.773 46.402C61.3842 45.5144 61.7725 44.4926 61.9051 43.423C62.0066 42.9205 62.1635 42.4309 62.373 41.963C62.575 41.5114 62.8983 41.1248 63.307 40.846C63.6956 40.6021 64.1341 40.449 64.59 40.398C65.0021 40.3484 65.4173 40.331 65.832 40.346C66.5328 40.4014 67.238 40.3516 67.924 40.198C68.4375 40.0674 68.8847 39.7519 69.18 39.312C69.3729 39.0386 69.471 38.7095 69.4591 38.375C69.4459 38.2591 69.4265 38.1439 69.401 38.03" fill="white"/>
<path d="M52.3246 56.1251C52.2921 56.0474 52.2673 55.9667 52.2506 55.8841L52.0596 55.1901C51.8428 54.3385 51.4921 53.5267 51.0206 52.7851C50.8582 52.5474 50.6712 52.3275 50.4626 52.1291C50.2335 51.9196 49.9776 51.7413 49.7016 51.5991C49.0775 51.3081 48.3877 51.1864 47.7016 51.2461C46.9351 51.3153 46.1757 51.4491 45.4316 51.6461C44.6207 51.8636 43.7843 51.9719 42.9446 51.9681C42.5302 51.993 42.1149 51.9338 41.7239 51.7942C41.3329 51.6545 40.9741 51.4373 40.6691 51.1555C40.3642 50.8737 40.1193 50.5332 39.9493 50.1544C39.7792 49.7755 39.6875 49.3663 39.6796 48.9511C39.6277 48.2472 39.6442 47.5399 39.7286 46.8391C39.7967 46.2366 39.8114 45.6292 39.7726 45.0241C39.7516 44.5881 39.6441 44.1607 39.4563 43.7667C39.2685 43.3727 39.0041 43.02 38.6786 42.7291C38.4257 42.5312 38.1367 42.3844 37.8276 42.2971C37.8276 42.2971 37.8496 42.2971 37.8916 42.3031C37.9542 42.3118 38.016 42.3252 38.0766 42.3431C38.311 42.4118 38.5304 42.5237 38.7236 42.6731C39.0682 42.9626 39.3503 43.3192 39.5528 43.7211C39.7553 44.123 39.874 44.5619 39.9016 45.0111C39.9498 45.6239 39.9425 46.2397 39.8796 46.8511C39.8026 47.5425 39.7915 48.2396 39.8466 48.9331C39.8961 49.6925 40.2079 50.4112 40.7286 50.9661C41.3397 51.5093 42.1332 51.8021 42.9506 51.7861C43.7746 51.7893 44.5953 51.6837 45.3916 51.4721C46.1457 51.2766 46.9152 51.1464 47.6916 51.0831C48.4075 51.0252 49.1259 51.158 49.7736 51.4681C50.0609 51.6197 50.3266 51.809 50.5636 52.0311C50.7768 52.239 50.9672 52.4689 51.1316 52.7171C51.6008 53.4751 51.9389 54.3068 52.1316 55.1771C52.2076 55.4771 52.2576 55.7191 52.2896 55.8771C52.3105 55.9587 52.3236 56.0421 52.3286 56.1261" fill="white"/>
<path d="M70.9631 51.643C70.4727 51.397 69.9588 51.201 69.4291 51.058C68.8528 50.9212 68.2583 50.8773 67.6681 50.928C66.947 50.9916 66.2472 51.2059 65.6141 51.557C64.9812 51.9111 64.4245 52.3869 63.9761 52.957C63.6093 53.4208 63.3254 53.9445 63.1371 54.505C63.0061 54.8802 62.9792 55.2838 63.0591 55.673C63.1017 55.8128 63.1531 55.9498 63.2131 56.083C63.2131 56.083 63.1821 56.057 63.1361 55.995C63.0741 55.9023 63.0253 55.8013 62.9911 55.695C62.8794 55.2936 62.887 54.8682 63.0131 54.471C63.1893 53.8864 63.4706 53.3388 63.8431 52.855C64.2992 52.2611 64.8719 51.7666 65.5261 51.402C66.1813 51.038 66.9077 50.8203 67.6551 50.764C68.2628 50.719 68.8738 50.7772 69.4621 50.936C69.8571 51.0414 70.2373 51.1956 70.5941 51.395C70.6913 51.4483 70.7851 51.5074 70.8751 51.572C70.9371 51.616 70.9681 51.641 70.9651 51.646" fill="white"/>
<path d="M74.7469 42.1701C74.7279 42.1791 74.6199 42.0251 74.5319 41.7351C74.4246 41.3537 74.408 40.9524 74.4836 40.5635C74.5591 40.1745 74.7246 39.8086 74.9669 39.4951C75.1569 39.2591 75.3159 39.1571 75.3289 39.1721C74.9926 39.5857 74.7635 40.0759 74.662 40.5992C74.5605 41.1225 74.5896 41.6628 74.7469 42.1721" fill="white"/>
<path d="M83.3387 49.1281C83.3346 49.1806 83.3225 49.2323 83.3027 49.2811C83.2595 49.4258 83.205 49.5669 83.1397 49.7031C82.8974 50.2071 82.5547 50.6563 82.1327 51.0231C81.5032 51.5738 80.7269 51.9289 79.8987 52.0451C78.8876 52.0967 77.876 51.9556 76.9177 51.6291C76.4239 51.4959 75.9167 51.4188 75.4057 51.3991C74.9324 51.3913 74.4613 51.4643 74.0127 51.6151C73.248 51.8748 72.5605 52.3217 72.0127 52.9151C71.6434 53.3163 71.3482 53.7798 71.1407 54.2841C70.9917 54.6411 70.9527 54.8551 70.9317 54.8501C70.9311 54.7973 70.9385 54.7447 70.9537 54.6941C70.9813 54.546 71.0215 54.4005 71.0737 54.2591C71.2605 53.7334 71.5463 53.2483 71.9157 52.8301C72.4663 52.2046 73.1684 51.7311 73.9547 51.4551C74.4205 51.2936 74.9107 51.2141 75.4037 51.2201C75.9282 51.2371 76.449 51.3146 76.9557 51.4511C77.8934 51.7719 78.8823 51.9167 79.8727 51.8781C80.6721 51.7728 81.425 51.4422 82.0437 50.9251C82.462 50.5754 82.8108 50.1499 83.0717 49.6711C83.2547 49.3301 83.3147 49.1211 83.3337 49.1281" fill="white"/>
<path d="M36.3908 55.539C36.3908 55.545 36.3498 55.552 36.2688 55.559C36.1507 55.5694 36.0319 55.5694 35.9138 55.559C35.4757 55.5318 35.0469 55.4204 34.6508 55.231C34.0573 54.9502 33.5485 54.5176 33.1758 53.977C32.9575 53.6559 32.7949 53.3002 32.6948 52.925C32.5987 52.5268 32.5293 52.1225 32.4868 51.715C32.4704 50.9441 32.23 50.1946 31.7948 49.558C31.3678 49.0978 30.7961 48.7975 30.1748 48.707C29.753 48.632 29.3261 48.5892 28.8978 48.579C28.7392 48.5829 28.5806 48.5726 28.4238 48.548C28.5802 48.5172 28.7395 48.5034 28.8988 48.507C29.3335 48.4899 29.7687 48.514 30.1988 48.579C30.8579 48.6576 31.4684 48.9652 31.9238 49.448C32.174 49.7494 32.3549 50.102 32.4538 50.481C32.5556 50.8784 32.6274 51.2829 32.6688 51.691C32.7103 52.0905 32.7771 52.487 32.8688 52.878C32.9621 53.2338 33.1135 53.5716 33.3168 53.878C33.6687 54.4006 34.1482 54.8246 34.7098 55.11C35.2365 55.3627 35.8092 55.5053 36.3928 55.529" fill="white"/>
</g>
</g>
</g>
</g>
<defs>
<clipPath id="clip0_160_564">
<rect width="100" height="78" fill="white"/>
</clipPath>
</defs>
</svg>
